<svg width="145" height="145" viewBox="0 0 145 145" fill="none" xmlns="http://www.w3.org/2000/svg">
<g clip-path="url(#clip0_128_23)">
<path d="M123.152 123.151C151.325 94.9784 151.325 49.3019 123.152 21.1295C94.9797 -7.04297 49.3032 -7.04297 21.1308 21.1295C-7.04162 49.3019 -7.04162 94.9784 21.1308 123.151C49.3032 151.323 94.9797 151.323 123.152 123.151Z" fill="#3C7FFF"/>
<path d="M78.9733 51.4574L27.3545 103.076L42.2037 117.925L93.8225 66.3066L78.9733 51.4574Z" fill="white"/>
<path d="M94.4602 78.0899L82.3502 62.9299L67.1902 50.8199C66.4602 50.2399 66.6502 49.0799 67.5302 48.7599L110.25 33.4999C111.2 33.1599 112.12 34.0799 111.78 35.0299L96.5202 77.7499C96.2102 78.6299 95.0502 78.8299 94.4602 78.0899Z" fill="white"/>
</g>
<defs>
<clipPath id="clip0_128_23">
<rect width="144.29" height="144.29" fill="white"/>
</clipPath>
</defs>
</svg>
