<svg width="45" height="45" viewBox="0 0 45 45" fill="none" xmlns="http://www.w3.org/2000/svg">
<g clip-path="url(#clip0_128_86)">
<path d="M6.59315 38.408C15.3793 47.1942 29.6246 47.1942 38.4107 38.408C47.1969 29.6219 47.1969 15.3766 38.4108 6.59044C29.6246 -2.19575 15.3793 -2.19575 6.59315 6.59044C-2.19304 15.3766 -2.19304 29.6219 6.59315 38.408Z" fill="#3C7FFF"/>
<path d="M25.7764 28.6583L25.7764 5.8916L19.2271 5.8916L19.2271 28.6583L25.7764 28.6583Z" fill="white"/>
<path d="M16.4891 26.2005L22.502 26.8742L28.5148 26.2005C28.8049 26.1693 29.017 26.4656 28.8922 26.7307L22.8388 39.5174C22.7047 39.8012 22.2992 39.8012 22.1651 39.5174L16.1117 26.7307C15.9869 26.4656 16.199 26.1693 16.4891 26.2005Z" fill="white"/>
</g>
<defs>
<clipPath id="clip0_128_86">
<rect width="45" height="45" fill="white" transform="translate(45) rotate(90)"/>
</clipPath>
</defs>
</svg>
