<svg width="53" height="45" viewBox="0 0 53 45" fill="none" xmlns="http://www.w3.org/2000/svg">
<g clip-path="url(#clip0_128_91)">
<path d="M52.3761 42.2471C53.0968 43.4636 52.2214 45.0035 50.8045 45.0035H1.82798C0.414592 45.0035 -0.464383 43.4636 0.256377 42.2471L24.7481 0.896555C25.4548 -0.298851 27.1811 -0.298851 27.8878 0.896555L52.3761 42.2471Z" fill="#E8391C"/>
<path d="M47.3871 40.9918H26.3163H5.24902L26.3163 5.41797L47.3871 40.9918Z" fill="#F6F6F6"/>
<path fill-rule="evenodd" clip-rule="evenodd" d="M26.3164 34.3431C27.6419 34.3431 28.7142 35.4154 28.7142 36.7409C28.7142 38.0664 27.6384 39.1388 26.3164 39.1388C24.9909 39.1388 23.9185 38.0664 23.9185 36.7409C23.9185 35.4154 24.9909 34.3431 26.3164 34.3431ZM23.9185 13.6344L24.6604 31.8819C24.7377 33.7454 27.8915 33.7454 27.9688 31.8819L28.7142 13.6344C28.8162 11.1381 23.8166 11.1381 23.9185 13.6344Z" fill="#1E1E1E"/>
</g>
<defs>
<clipPath id="clip0_128_91">
<rect width="52.6365" height="45" fill="white"/>
</clipPath>
</defs>
</svg>
