<svg width="54" height="39" viewBox="0 0 54 39" fill="none" xmlns="http://www.w3.org/2000/svg">
<g clip-path="url(#clip0_128_117)">
<path d="M8.50915 32.5762H5.42433L0 39.0001H3.86121L8.50915 32.5762Z" fill="#1E1E1E"/>
<path d="M16.0922 32.5762H13.0073L7.58301 39.0001H11.439L16.0922 32.5762Z" fill="#1E1E1E"/>
<path d="M23.6742 32.5762H20.5894L15.165 39.0001H19.0211L23.6742 32.5762Z" fill="#1E1E1E"/>
<path d="M31.2572 32.5762H28.1724L22.748 39.0001H26.6041L31.2572 32.5762Z" fill="#1E1E1E"/>
<path d="M38.835 32.5762H35.7554L30.3311 39.0001H34.1871L38.835 32.5762Z" fill="#1E1E1E"/>
<path d="M46.4171 32.5762H43.3322L37.9131 39.0001H41.7691L46.4171 32.5762Z" fill="#1E1E1E"/>
<path d="M54.0001 32.5762H50.9152L45.4961 39.0001H49.3521L54.0001 32.5762Z" fill="#1E1E1E"/>
<path fill-rule="evenodd" clip-rule="evenodd" d="M17.738 15.823L22.2514 14.6531C22.2514 14.6531 24.8031 10.5689 26.0764 9.20922C27.3497 7.8444 30.5898 6.67969 31.2782 6.67969C31.9665 6.67969 38.1466 12.7085 38.1466 12.7085C38.1466 12.7085 38.2449 19.9995 37.1631 19.9995H35.0048L35.2998 14.5556L33.1415 11.9286L32.7481 20.5844L38.9281 31.6723C38.9281 31.6723 38.043 34.0069 36.6714 34.0069C35.2998 34.0069 29.803 22.6317 29.803 22.6317L28.8144 24.3967C28.8144 24.3967 24.2338 32.6626 22.8673 32.8576C22.0392 32.9756 21.0299 33.0217 20.3622 33.0423C20.0361 33.0525 19.8187 32.7036 19.9792 32.4214L25.2897 22.7445L27.2565 18.8399L26.77 14.3658L23.6282 17.7676C23.6282 17.7676 19.5082 18.8399 18.3333 18.06C17.1532 17.2801 17.7432 15.823 17.7432 15.823H17.738Z" fill="#1E1E1E"/>
<path fill-rule="evenodd" clip-rule="evenodd" d="M27.1941 0.0253285C29.399 -0.256871 31.2365 1.69287 30.7292 3.89916C30.4653 5.05874 29.5129 5.99257 28.3432 6.24911C26.1279 6.73142 24.1869 4.93047 24.4509 2.7601C24.6217 1.35423 25.7759 0.20491 27.1941 0.0201976V0.0253285Z" fill="#1E1E1E"/>
</g>
<defs>
<clipPath id="clip0_128_117">
<rect width="54" height="39" fill="white"/>
</clipPath>
</defs>
</svg>
