<svg width="302" height="302" viewBox="0 0 302 302" fill="none" xmlns="http://www.w3.org/2000/svg">
<g clip-path="url(#clip0_125_93)">
<path d="M257.758 257.755C316.723 198.79 316.723 103.189 257.758 44.224C198.793 -14.7411 103.192 -14.7411 44.2267 44.224C-14.7384 103.189 -14.7384 198.79 44.2267 257.755C103.192 316.721 198.793 316.721 257.758 257.755Z" fill="#E8391C"/>
<path d="M240.279 240.277C289.591 190.965 289.591 111.015 240.279 61.7026C190.968 12.3906 111.017 12.3906 61.7051 61.7026C12.3932 111.015 12.3932 190.965 61.7051 240.277C111.017 289.589 190.968 289.589 240.279 240.277Z" fill="#F6F6F6"/>
<path fill-rule="evenodd" clip-rule="evenodd" d="M92.5526 138.243L116.873 131.901C116.873 131.901 130.624 109.695 137.489 102.306C144.355 94.897 161.81 88.5552 165.515 88.5552C169.219 88.5552 202.519 121.332 202.519 121.332C202.519 121.332 203.042 160.973 197.224 160.973H185.608L187.198 131.378L175.561 117.083L173.447 164.155L206.747 224.433C206.747 224.433 201.975 237.117 194.587 237.117C187.198 237.117 157.582 175.248 157.582 175.248L132.717 193.226C132.717 193.226 124.785 238.184 117.397 239.231C109.987 240.298 99.9409 240.298 99.9409 240.298L113.692 184.247L143.81 154.631L141.194 130.311L124.262 148.813C124.262 148.813 102.055 154.631 95.713 150.404C89.3503 146.176 92.5317 138.264 92.5317 138.264L92.5526 138.243Z" fill="#1E1E1E"/>
<path fill-rule="evenodd" clip-rule="evenodd" d="M145.84 52.1997C155.343 52.1997 163.066 59.9229 163.066 69.4042C163.066 78.8855 155.343 86.6297 145.84 86.6297C136.338 86.6297 128.636 78.9274 128.636 69.4042C128.636 59.881 136.338 52.1997 145.84 52.1997Z" fill="#1E1E1E"/>
</g>
<defs>
<clipPath id="clip0_125_93">
<rect width="302" height="302" fill="white"/>
</clipPath>
</defs>
</svg>
