<svg width="53" height="45" viewBox="0 0 53 45" fill="none" xmlns="http://www.w3.org/2000/svg">
<g clip-path="url(#clip0_128_96)">
<path d="M52.3761 42.2471C53.0968 43.4636 52.2214 45.0035 50.8045 45.0035H1.82798C0.414592 45.0035 -0.464383 43.4636 0.256377 42.2471L24.7481 0.896555C25.4548 -0.298851 27.1811 -0.298851 27.8878 0.896555L52.3761 42.2471Z" fill="#E8391C"/>
<path d="M47.3871 40.9918H26.3163H5.24902L26.3163 5.41797L47.3871 40.9918Z" fill="#F6F6F6"/>
<path fill-rule="evenodd" clip-rule="evenodd" d="M23.9718 32.8174C22.7623 32.6908 21.5388 32.6733 20.8602 31.4357L19.5066 28.9781C19.373 28.7249 19.6051 28.3803 19.8828 28.4436L23.6202 29.0378C23.2335 28.6054 22.9768 28.0639 22.8959 27.4768L22.1471 21.7353L19.5875 21.004V20.1496L22.4248 19.2917C22.8784 19.1546 23.244 18.8382 23.455 18.4128L24.3199 16.6759C24.3832 16.5493 24.6187 16.6056 24.6012 16.7744L24.2496 18.2299C24.1687 18.6167 24.7629 18.237 24.791 18.2299C25.3043 17.9768 25.7825 16.0852 26.1024 16.2399C26.4083 16.3665 25.6208 17.7061 26.1552 17.5338C26.8056 17.1892 27.1221 16.7849 27.3295 16.0888C27.3647 15.8989 27.667 15.9446 27.667 16.1415C27.6213 16.9642 27.1607 17.7131 26.4365 18.121L23.9683 19.5379L25.9477 19.6644C25.5891 20.1989 24.9809 20.5153 24.3304 20.5153L25.2235 23.546C25.5891 24.8117 26.563 25.8067 27.8288 26.1864L34.4386 28.194C35.0715 28.3768 35.7114 28.855 36.2669 29.1714C36.9103 29.5511 36.7275 30.2016 36.5904 30.7817C36.0735 32.8877 37.6557 33.7737 39.0585 34.7687L40.6301 37.7783C40.82 38.1405 41.2173 38.3479 41.6251 38.2952L41.8607 39.7683C39.6 39.0265 39.2554 36.3333 37.0334 35.5915C35.0363 34.9059 33.31 34.2519 32.5963 31.9666C30.0543 31.9666 27.544 31.4708 25.2024 30.504L25.0653 30.9891L21.0431 29.8957C21.4333 30.7008 21.9396 32.0756 23.1596 31.4779L23.9718 32.8139V32.8174Z" fill="#1E1E1E"/>
</g>
<defs>
<clipPath id="clip0_128_96">
<rect width="52.6365" height="45" fill="white"/>
</clipPath>
</defs>
</svg>
