<svg width="388" height="388" viewBox="0 0 388 388" fill="none" xmlns="http://www.w3.org/2000/svg">
<circle cx="193.812" cy="193.812" r="180.812" fill="white" stroke="#ED1C24" stroke-width="26"/>
<mask id="path-2-outside-1_106_15" maskUnits="userSpaceOnUse" x="80.9551" y="196.467" width="227" height="117" fill="black">
<rect fill="white" x="80.9551" y="196.467" width="227" height="117"/>
<path d="M84.5051 200.242C84.5051 229.475 96.1181 257.511 116.789 278.183C137.46 298.854 165.497 310.467 194.73 310.467C223.964 310.467 252 298.854 272.671 278.183C293.342 257.511 304.955 229.475 304.955 200.242L289.257 200.242C289.257 225.312 279.298 249.355 261.571 267.083C243.844 284.81 219.8 294.769 194.73 294.769C169.66 294.769 145.617 284.81 127.889 267.083C110.162 249.355 100.203 225.312 100.203 200.242L84.5051 200.242Z"/>
</mask>
<path d="M84.5051 200.242C84.5051 229.475 96.1181 257.511 116.789 278.183C137.46 298.854 165.497 310.467 194.73 310.467C223.964 310.467 252 298.854 272.671 278.183C293.342 257.511 304.955 229.475 304.955 200.242L289.257 200.242C289.257 225.312 279.298 249.355 261.571 267.083C243.844 284.81 219.8 294.769 194.73 294.769C169.66 294.769 145.617 284.81 127.889 267.083C110.162 249.355 100.203 225.312 100.203 200.242L84.5051 200.242Z" fill="black"/>
<path d="M84.5051 200.242C84.5051 229.475 96.1181 257.511 116.789 278.183C137.46 298.854 165.497 310.467 194.73 310.467C223.964 310.467 252 298.854 272.671 278.183C293.342 257.511 304.955 229.475 304.955 200.242L289.257 200.242C289.257 225.312 279.298 249.355 261.571 267.083C243.844 284.81 219.8 294.769 194.73 294.769C169.66 294.769 145.617 284.81 127.889 267.083C110.162 249.355 100.203 225.312 100.203 200.242L84.5051 200.242Z" stroke="black" stroke-width="6" mask="url(#path-2-outside-1_106_15)"/>
<path d="M160.571 139.6L160.571 160L109.571 144.2L109.571 130L160.571 139.6Z" fill="black"/>
<path fill-rule="evenodd" clip-rule="evenodd" d="M163.571 137.112L163.571 164.07L106.571 146.411L106.571 126.383L163.571 137.112ZM160.571 139.6L160.571 160L109.571 144.2L109.571 130L160.571 139.6Z" fill="black"/>
<path d="M242 145C242 140.867 243.333 137.467 246 134.8C248.8 132.267 252.133 131 256 131C259.867 131 263.133 132.267 265.8 134.8C268.6 137.467 270 140.867 270 145C270 149.133 268.6 152.467 265.8 155C263.133 157.667 259.867 159 256 159C252.133 159 248.8 157.667 246 155C243.333 152.467 242 149.133 242 145Z" fill="black"/>
<path fill-rule="evenodd" clip-rule="evenodd" d="M243.932 132.626L243.987 132.575C247.353 129.53 251.409 128 256 128C260.592 128 264.611 129.533 267.866 132.625L267.869 132.628C271.308 135.903 273 140.109 273 145C273 149.865 271.323 154.02 267.868 157.174C264.632 160.384 260.615 162 256 162C251.363 162 247.29 160.371 243.932 157.173C240.594 154.001 239 149.843 239 145C239 140.155 240.593 135.965 243.879 132.679L243.932 132.626ZM246 155C248.8 157.667 252.133 159 256 159C259.867 159 263.133 157.667 265.8 155C268.6 152.467 270 149.133 270 145C270 140.867 268.6 137.467 265.8 134.8C263.133 132.267 259.867 131 256 131C252.133 131 248.8 132.267 246 134.8C243.333 137.467 242 140.867 242 145C242 149.133 243.333 152.467 246 155Z" fill="black"/>
</svg>
