<svg width="273" height="273" viewBox="0 0 273 273" fill="none" xmlns="http://www.w3.org/2000/svg">
<g clip-path="url(#clip0_128_3)">
<path d="M126.963 253.001L47.4746 212.149L20.1601 127.074L61.0116 47.5856L146.087 20.271L225.575 61.1226L252.89 146.198L212.038 225.686L126.963 253.001Z" fill="#E8391C"/>
<path d="M127.421 247.328L51.8211 208.475L25.8332 127.531L64.6864 51.9314L145.63 25.9436L221.23 64.7968L247.217 145.74L208.364 221.34L127.421 247.328Z" stroke="white" stroke-width="3" stroke-miterlimit="10"/>
<path d="M78.5036 144.025C78.0742 143.757 77.3446 143.43 76.3007 143.047C75.2755 142.674 74.0663 142.359 72.6822 142.133C71.2982 141.906 69.8565 141.791 68.3289 141.798C66.8058 141.818 65.3367 142.056 63.9074 142.515C61.3603 143.333 59.6458 144.507 58.7594 146.025C57.8731 147.543 57.7593 149.328 58.4135 151.365C58.7906 152.54 59.3447 153.439 60.0615 154.067C60.7784 154.696 61.6757 155.157 62.758 155.465C63.8404 155.773 65.1406 155.933 66.6581 155.992C68.171 156.037 69.9053 156.043 71.8752 156.003C74.4367 156.008 76.8042 156.138 78.973 156.378C81.1464 156.632 83.1003 157.176 84.8298 158.041C86.5593 158.906 88.0734 160.122 89.3534 161.677C90.6379 163.247 91.7146 165.337 92.5551 167.955C93.5365 171.011 93.8913 173.77 93.6242 176.244C93.3571 178.718 92.6327 180.886 91.437 182.753C90.2412 184.62 88.6726 186.2 86.7595 187.486C84.8322 188.776 82.7105 189.8 80.3897 190.545C76.8237 191.69 73.0815 192.189 69.1869 192.019C65.2924 191.849 61.5834 191.042 58.0653 189.565L59.0882 178.7C59.6388 179.054 60.5792 179.454 61.8717 179.882C63.1687 180.324 64.6639 180.703 66.343 181.022C68.0221 181.342 69.816 181.484 71.7293 181.463C73.6425 181.442 75.5118 181.138 77.3514 180.547C82.4458 178.912 84.3518 176.146 83.0979 172.24C82.7026 171.009 82.0692 170.057 81.2164 169.394C80.3636 168.732 79.2975 168.231 78.0176 167.939C76.7377 167.648 75.2591 167.467 73.5723 167.415C71.8855 167.364 70.0011 167.329 67.9101 167.282C65.391 167.264 63.1605 167.074 61.1948 166.738C59.2433 166.396 57.5062 165.799 56.0021 164.955C54.498 164.111 53.2133 162.978 52.1571 161.585C51.0822 160.182 50.2091 158.386 49.5048 156.192C48.578 153.306 48.1898 150.589 48.3731 148.049C48.5422 145.512 49.1877 143.245 50.2911 141.236C51.3944 139.227 52.8705 137.504 54.715 136.053C56.5594 134.603 58.7009 133.494 61.1066 132.721C64.4604 131.645 67.7356 131.295 70.9514 131.637C74.1718 131.992 77.097 132.692 79.7411 133.732L78.541 144.045L78.5036 144.025Z" fill="#F6F6F6"/>
<path d="M126.44 122.875L111.242 127.755L126.43 175.061L117.261 178.005L102.072 130.699L86.8742 135.578L83.7529 125.856L123.319 113.153L126.44 122.875Z" fill="#F6F6F6"/>
<path d="M167.398 162.345C163.917 163.463 160.497 163.655 157.145 162.937C153.792 162.218 150.658 160.82 147.753 158.772C144.847 156.723 142.282 154.128 140.046 151.006C137.811 147.884 136.114 144.495 134.946 140.858C133.778 137.221 133.151 133.224 133.208 129.366C133.279 125.503 133.915 121.896 135.123 118.558C136.344 115.215 138.121 112.288 140.475 109.799C142.824 107.297 145.674 105.523 149.027 104.447C152.381 103.37 155.866 103.188 159.251 103.958C162.622 104.734 165.75 106.164 168.637 108.25C171.523 110.336 174.075 112.936 176.31 116.058C178.546 119.18 180.233 122.541 181.383 126.121C182.605 129.927 183.188 133.736 183.136 137.562C183.084 141.387 182.452 144.962 181.25 148.267C180.048 151.572 178.267 154.485 175.927 156.969C173.577 159.471 170.728 161.245 167.375 162.321L167.398 162.345ZM144.319 137.865C145.109 140.327 146.188 142.618 147.547 144.711C148.91 146.818 150.47 148.565 152.222 149.938C153.979 151.325 155.876 152.277 157.948 152.798C160.006 153.324 162.131 153.234 164.325 152.53C166.518 151.826 168.35 150.629 169.727 148.985C171.085 147.331 172.074 145.406 172.681 143.213C173.284 141.006 173.521 138.682 173.384 136.213C173.261 133.739 172.818 131.337 172.059 128.974C171.3 126.611 170.18 124.239 168.788 122.141C167.397 120.043 165.841 118.311 164.085 116.923C162.328 115.536 160.435 114.599 158.372 114.106C156.324 113.608 154.217 113.707 152.08 114.393C149.943 115.079 148.04 116.299 146.65 117.948C145.264 119.61 144.269 121.521 143.682 123.677C143.098 125.847 142.875 128.166 142.993 130.626C143.116 133.099 143.564 135.516 144.319 137.865Z" fill="#F6F6F6"/>
<path d="M199.266 151.676L180.956 94.6481L201.107 88.1784C203.3 87.4742 205.487 87.381 207.691 87.8754C209.899 88.384 211.961 89.314 213.868 90.6841C215.79 92.0496 217.491 93.7512 218.968 95.7745C220.464 97.8075 221.568 99.9818 222.304 102.274C223.04 104.567 223.477 107.143 223.486 109.653C223.51 112.158 223.155 114.504 222.421 116.691C221.701 118.873 220.585 120.793 219.105 122.454C217.625 124.116 215.788 125.299 213.594 126.003L202.344 129.615L208.482 148.733L199.242 151.7L199.266 151.676ZM199.247 119.87L209.959 116.431C211.657 115.886 212.804 114.596 213.405 112.577C214.005 110.558 213.863 108.122 212.95 105.277C212.487 103.834 211.885 102.591 211.163 101.559C210.441 100.526 209.661 99.6994 208.821 99.0791C207.982 98.4588 207.112 98.0825 206.202 97.922C205.297 97.7757 204.436 97.8178 203.629 98.0768L193.313 101.389L199.247 119.87Z" fill="#F6F6F6"/>
</g>
<defs>
<clipPath id="clip0_128_3">
<rect width="215.743" height="215.743" fill="white" transform="translate(0.841797 66.9038) rotate(-17.7999)"/>
</clipPath>
</defs>
</svg>
