<svg width="1437" height="324" viewBox="0 0 1437 324" fill="none" xmlns="http://www.w3.org/2000/svg">
<path d="M554.86 68.8398H481.46V324H554.86V68.8398Z" fill="white"/>
<path fill-rule="evenodd" clip-rule="evenodd" d="M554.87 68.8398V324H552.87V70.8398H481.46V68.8398H554.87Z" fill="black"/>
<path d="M481.46 66.4697V324H461.75V115.91L481.46 66.4697Z" fill="#E5E1DF"/>
<path fill-rule="evenodd" clip-rule="evenodd" d="M461.75 115.91V324H463.75V116.29L479.46 76.8897V324H481.46V66.4697L461.75 115.91Z" fill="black"/>
<path d="M534.48 148.96V324H514.76V198.39L534.48 148.96Z" fill="#E5E1DF"/>
<path fill-rule="evenodd" clip-rule="evenodd" d="M514.76 198.39V324H516.76V198.78L532.48 159.37V324H534.48V148.96L514.76 198.39Z" fill="black"/>
<path d="M582.72 33.83L602.43 0V181H582.72V33.83Z" fill="#E5E1DF"/>
<path fill-rule="evenodd" clip-rule="evenodd" d="M582.73 33.83V181H602.43V0L582.73 33.83ZM600.43 179H584.73V34.37L600.43 7.41V179Z" fill="black"/>
<path d="M410.1 164.98H336.71V324H410.1V164.98Z" fill="white"/>
<path fill-rule="evenodd" clip-rule="evenodd" d="M410.11 164.98V324H408.11V166.98H336.71V164.98H410.11Z" fill="black"/>
<path d="M525.63 240.35H397.87V324H525.63V240.35Z" fill="white"/>
<path fill-rule="evenodd" clip-rule="evenodd" d="M525.63 240.35V324H523.63V242.35H397.87V240.35H525.63Z" fill="black"/>
<path d="M721.35 0H602.43V324H721.35V0Z" fill="white"/>
<path fill-rule="evenodd" clip-rule="evenodd" d="M721.36 0V324H719.36V2H602.43V0H721.36Z" fill="black"/>
<path d="M397.87 240.35V324H378.17V289.78L397.87 240.35Z" fill="#E5E1DF"/>
<path fill-rule="evenodd" clip-rule="evenodd" d="M378.17 289.78V324H380.17V290.17L395.87 250.76V324H397.87V240.35L378.17 289.78Z" fill="black"/>
<path d="M208.95 111.57V324H189.25V161.01L208.95 111.57Z" fill="#E5E1DF"/>
<path fill-rule="evenodd" clip-rule="evenodd" d="M189.25 161.01V324H191.25V161.39L206.95 121.99V324H208.95V111.57L189.25 161.01Z" fill="black"/>
<path d="M93.71 165V324H74V214.44L93.71 165Z" fill="#E5E1DF"/>
<path fill-rule="evenodd" clip-rule="evenodd" d="M74 214.44V324H76V214.83L91.71 175.42V324H93.71V165L74 214.44Z" fill="black"/>
<path d="M727.71 142.64L747.71 109V289H727.71V142.64Z" fill="#E5E1DF"/>
<path fill-rule="evenodd" clip-rule="evenodd" d="M727.71 142.64V289H747.71V109L727.71 142.64ZM745.71 287H729.71V143.19L745.71 116.28V287Z" fill="black"/>
<path d="M626.9 148.96H534.48V324H626.9V148.96Z" fill="white"/>
<path fill-rule="evenodd" clip-rule="evenodd" d="M626.89 148.96V324H624.89V150.96H534.48V148.96H626.89Z" fill="black"/>
<path d="M777.08 240.35H703.68V324H777.08V240.35Z" fill="white"/>
<path fill-rule="evenodd" clip-rule="evenodd" d="M777.08 240.35V324H775.08V242.35H703.68V240.35H777.08Z" fill="black"/>
<path d="M887.86 108.6H747.87V324H887.86V108.6Z" fill="white"/>
<path fill-rule="evenodd" clip-rule="evenodd" d="M887.86 108.6V324H885.86V110.6H747.87V108.6H887.86Z" fill="black"/>
<path d="M930.2 225.51H866.79V324H930.2V225.51Z" fill="white"/>
<path fill-rule="evenodd" clip-rule="evenodd" d="M930.19 225.51V324H928.19V227.51H866.79V225.51H930.19Z" fill="black"/>
<path d="M357.1 111.57H208.95V324H357.1V111.57Z" fill="white"/>
<path fill-rule="evenodd" clip-rule="evenodd" d="M357.11 111.57V324H355.11V113.57H208.95V111.57H357.11Z" fill="black"/>
<path d="M225.55 165H93.71V324H225.55V165Z" fill="white"/>
<path fill-rule="evenodd" clip-rule="evenodd" d="M225.56 165V324H223.56V167H93.71V165H225.56Z" fill="black"/>
<path d="M703.68 240.35V324H683.99V274.17L703.68 240.35Z" fill="#E5E1DF"/>
<path fill-rule="evenodd" clip-rule="evenodd" d="M683.99 274.17V324H685.99V274.71L701.68 247.75V324H703.68V240.35L683.99 274.17Z" fill="black"/>
<path d="M866.79 225.51V324H847.07V259.34L866.79 225.51Z" fill="#E5E1DF"/>
<path fill-rule="evenodd" clip-rule="evenodd" d="M847.07 259.34V324H849.07V259.88L864.79 232.92V324H866.79V225.51L847.07 259.34Z" fill="black"/>
<path d="M1263.1 179.98H1189.71V324H1263.1V179.98Z" fill="white"/>
<path fill-rule="evenodd" clip-rule="evenodd" d="M1189.71 179.98V324H1191.71V181.98H1261.11V324H1263.11V179.98H1189.71Z" fill="black"/>
<path d="M1365.72 255.35H1237.96V324H1365.72V255.35Z" fill="white"/>
<path fill-rule="evenodd" clip-rule="evenodd" d="M1365.73 255.35V324H1363.73V257.35H1237.96V255.35H1365.73Z" fill="black"/>
<path d="M1042.25 160.4L1061.96 126.57V307.57H1042.25V160.4Z" fill="#E5E1DF"/>
<path fill-rule="evenodd" clip-rule="evenodd" d="M1042.25 160.4V307.57H1061.95V126.57L1042.25 160.4ZM1059.95 305.57H1044.25V160.94L1059.95 133.98V305.57Z" fill="black"/>
<path d="M1210.1 126.57H1061.95V324H1210.1V126.57Z" fill="white"/>
<path fill-rule="evenodd" clip-rule="evenodd" d="M1210.11 126.57V324H1208.11V128.57H1061.95V126.57H1210.11Z" fill="black"/>
<path d="M1078.27 179.98H946.43V324H1078.27V179.98Z" fill="white"/>
<path fill-rule="evenodd" clip-rule="evenodd" d="M1078.27 179.98V324H1076.27V181.98H946.43V179.98H1078.27Z" fill="black"/>
<path d="M946.43 179.98V324H926.71V213.81L946.43 179.98Z" fill="#E5E1DF"/>
<path fill-rule="evenodd" clip-rule="evenodd" d="M926.71 213.81V324H928.71V214.35L944.43 187.38V324H946.43V179.98L926.71 213.81Z" fill="black"/>
<path d="M1237.96 255.35V324H1218.26V289.17L1237.96 255.35Z" fill="#E5E1DF"/>
<path fill-rule="evenodd" clip-rule="evenodd" d="M1218.26 289.17V324H1220.26V289.71L1235.96 262.75V324H1237.96V255.35L1218.26 289.17Z" fill="black"/>
<path d="M516.76 322V324H523.63V322H516.76ZM1237.96 322V324H1261.11V322H1237.96ZM1220.26 322V324H1235.96V322H1220.26ZM1191.71 322V324H1208.11V322H1191.71ZM703.68 322V324H719.36V322H703.68ZM685.99 322V324H701.68V322H685.99ZM534.48 322V324H552.87V322H534.48ZM481.46 322V324H532.48V322H481.46ZM397.87 322V324H408.11V322H397.87ZM380.17 322V324H395.87V322H380.17ZM208.95 322V324H223.56V322H208.95ZM191.25 322V324H206.95V322H191.25ZM191.25 322V324H206.95V322H191.25ZM208.95 322V324H223.56V322H208.95ZM380.17 322V324H395.87V322H380.17ZM397.87 322V324H408.11V322H397.87ZM481.46 322V324H532.48V322H481.46ZM534.48 322V324H552.87V322H534.48ZM685.99 322V324H701.68V322H685.99ZM703.68 322V324H719.36V322H703.68ZM1191.71 322V324H1208.11V322H1191.71ZM1220.26 322V324H1235.96V322H1220.26ZM1237.96 322V324H1261.11V322H1237.96ZM516.76 322V324H523.63V322H516.76ZM516.76 322V324H523.63V322H516.76Z" fill="black"/>
<path fill-rule="evenodd" clip-rule="evenodd" d="M357.11 322V324H380.17V322H357.11ZM395.87 322V324H397.87V322H395.87ZM408.11 322V324H481.46V322H408.11ZM74 322V324H355.11V322H74ZM525.63 322V324H1365.73V322H525.63Z" fill="black"/>
<path fill-rule="evenodd" clip-rule="evenodd" d="M1437 324H0V322H1437V324Z" fill="black"/>
</svg>
