<svg width="45" height="45" viewBox="0 0 45 45" fill="none" xmlns="http://www.w3.org/2000/svg">
<g clip-path="url(#clip0_128_81)">
<path d="M38.408 38.4073C47.1942 29.6211 47.1942 15.3759 38.408 6.58973C29.6219 -2.19645 15.3766 -2.19645 6.59044 6.58973C-2.19575 15.3759 -2.19575 29.6211 6.59044 38.4073C15.3766 47.1935 29.6219 47.1935 38.408 38.4073Z" fill="#E8391C"/>
<path d="M36.0434 36.0433C43.524 28.5627 43.524 16.4343 36.0434 8.95378C28.5629 1.47322 16.4345 1.47322 8.95393 8.95378C1.47337 16.4343 1.47337 28.5627 8.95393 36.0433C16.4345 43.5238 28.5629 43.5238 36.0434 36.0433Z" fill="#F6F6F6"/>
<path d="M20.1064 19.7884L18.9057 16.7196C18.678 16.1364 18.1884 15.6343 17.2653 15.6343H10.9592C10.0361 15.6343 9.54642 16.1364 9.31875 16.7196L8.11805 19.7884C7.64088 19.8508 6.79883 20.4028 6.79883 21.4507V25.3553H7.96835V26.6028C7.96835 28.1403 10.167 28.1216 10.167 26.6028V25.3553H18.0699V26.6028C18.0699 28.1216 20.2655 28.1403 20.2655 26.6028V25.3553H21.435V21.4507C21.435 20.4028 20.5898 19.8508 20.1158 19.7884H20.1064ZM9.09421 22.9726C8.53596 22.9726 8.08062 22.5079 8.08062 21.9372C8.08062 21.3665 8.53284 20.9018 9.09421 20.9018C9.65558 20.9018 10.1109 21.3665 10.1109 21.9372C10.1109 22.5079 9.65869 22.9726 9.09421 22.9726ZM14.1122 19.7167H9.3593L10.2637 17.3433C10.3791 17.0034 10.5475 16.7601 10.9436 16.7539H17.2777C17.6738 16.7601 17.8422 17.0034 17.9576 17.3433L18.8652 19.7167H14.1122ZM19.124 22.9726C18.5626 22.9726 18.1104 22.5079 18.1104 21.9372C18.1104 21.3665 18.5626 20.9018 19.124 20.9018C19.6854 20.9018 20.1376 21.3665 20.1376 21.9372C20.1376 22.5079 19.6823 22.9726 19.124 22.9726Z" fill="#E8391C"/>
<path d="M36.7666 19.7884L35.5659 16.7196C35.3382 16.1364 34.8485 15.6343 33.9254 15.6343H27.6194C26.6962 15.6343 26.2066 16.1364 25.9789 16.7196L24.7782 19.7884C24.301 19.8508 23.459 20.4028 23.459 21.4507V25.3553H24.6285V26.6028C24.6285 28.1403 26.8272 28.1216 26.8272 26.6028V25.3553H34.73V26.6028C34.73 28.1216 36.9256 28.1403 36.9256 26.6028V25.3553H38.0951V21.4507C38.0951 20.4028 37.25 19.8508 36.7759 19.7884H36.7666ZM25.7544 22.9726C25.1961 22.9726 24.7408 22.5079 24.7408 21.9372C24.7408 21.3665 25.193 20.9018 25.7544 20.9018C26.3157 20.9018 26.7711 21.3665 26.7711 21.9372C26.7711 22.5079 26.3189 22.9726 25.7544 22.9726ZM30.7724 19.7167H26.0195L26.9239 17.3433C27.0393 17.0034 27.2077 16.7601 27.6038 16.7539H33.9379C34.334 16.7601 34.5024 17.0034 34.6178 17.3433L35.5253 19.7167H30.7724ZM35.7842 22.9726C35.2228 22.9726 34.7706 22.5079 34.7706 21.9372C34.7706 21.3665 35.2228 20.9018 35.7842 20.9018C36.3455 20.9018 36.7977 21.3665 36.7977 21.9372C36.7977 22.5079 36.3424 22.9726 35.7842 22.9726Z" fill="#1E1E1E"/>
</g>
<defs>
<clipPath id="clip0_128_81">
<rect width="45" height="45" fill="white"/>
</clipPath>
</defs>
</svg>
