<svg width="37" height="37" viewBox="0 0 37 37" fill="none" xmlns="http://www.w3.org/2000/svg">
<g id="Group 63">
<path id="Vector" d="M26.2576 10.7908L26.0333 11.848L22.8808 26.7133C22.7527 27.2836 22.5028 27.7321 22.0735 27.9244C21.6378 28.123 21.1508 28.0077 20.6702 27.7385H20.6574L20.6382 27.7193L16.0505 24.3362L13.9488 26.3673C13.8079 26.5468 13.6284 26.6877 13.4234 26.7902C13.212 26.8928 12.9813 26.944 12.7506 26.944H12.3982L12.4174 26.6044L12.7634 21.7091V21.581L12.866 21.4977L21.106 14.0522L10.5593 20.6967L10.4311 20.7736L10.2902 20.7288L5.54863 19.2486C5.2667 19.1589 5.02322 19.0372 4.85021 18.8706C4.67081 18.704 4.54906 18.4798 4.57469 18.2235C4.59392 17.9672 4.74129 17.7557 4.93351 17.5827C5.13214 17.4097 5.40766 17.2559 5.74085 17.1214H5.74726L24.2712 9.97704H24.2777C25.0465 9.6823 25.7834 9.81686 26.091 10.2462C26.155 10.3359 26.2512 10.5089 26.2576 10.7908Z" fill="#231F20"/>
<path id="Vector_2" d="M18.0242 2.56299C26.5461 2.56299 33.4854 9.49586 33.4854 18.0242C33.4854 26.5525 26.5525 33.4854 18.0242 33.4854C9.49586 33.4854 2.56299 26.5461 2.56299 18.0242C2.56299 9.50227 9.49586 2.56299 18.0242 2.56299ZM18.0242 0C8.067 0 0 8.067 0 18.0242C0 27.9814 8.067 36.0484 18.0242 36.0484C27.9814 36.0484 36.0484 27.9814 36.0484 18.0242C36.0484 8.067 27.975 0 18.0242 0Z" fill="#ED1C24"/>
</g>
</svg>
