<svg width="37" height="37" viewBox="0 0 37 37" fill="none" xmlns="http://www.w3.org/2000/svg">
<path d="M18.0242 2.56299C26.5461 2.56299 33.4854 9.49586 33.4854 18.0242C33.4854 26.5525 26.5525 33.4854 18.0242 33.4854C9.49586 33.4854 2.56299 26.5461 2.56299 18.0242C2.56299 9.50227 9.49586 2.56299 18.0242 2.56299ZM18.0242 0C8.067 0 0 8.067 0 18.0242C0 27.9814 8.067 36.0484 18.0242 36.0484C27.9814 36.0484 36.0484 27.9814 36.0484 18.0242C36.0484 8.067 27.975 0 18.0242 0Z" fill="#ED1C24"/>
<path fill-rule="evenodd" clip-rule="evenodd" d="M19.0234 25.9307C11.3473 25.9307 6.96457 20.6701 6.78516 11.9111H10.6296C10.7578 18.3378 13.5899 21.061 15.8389 21.6249V11.9111H19.4591V17.4536C21.6761 17.2165 24.0084 14.6856 24.7901 11.9111H28.4104C27.8081 15.3327 25.2835 17.8637 23.483 18.9017C25.2771 19.7411 28.1541 21.9452 29.2497 25.9307H25.2643C24.4057 23.2652 22.2784 21.202 19.4527 20.92V25.9307H19.017H19.0234Z" fill="#231F20"/>
</svg>
